<?xml version="1.0" encoding="iso-8859-1"?>
<!-- Generator: Adobe Illustrator 19.0.0, SVG Export Plug-In . SVG Version: 6.00 Build 0)  -->
<svg version="1.1" id="Layer_1" xmlns="http://www.w3.org/2000/svg" xmlns:xlink="http://www.w3.org/1999/xlink" x="0px" y="0px"
	 viewBox="0 0 512 512"  xml:space="preserve">
<g>
		<path  d="M391.406,482.167l-102.4-179.2c-1.519-2.662-4.344-4.301-7.407-4.301v-25.6c0-4.71-3.823-8.533-8.533-8.533h-8.533v-256
			c0-4.71-3.823-8.533-8.533-8.533c-4.71,0-8.533,3.823-8.533,8.533v256h-8.533c-4.71,0-8.533,3.823-8.533,8.533v25.6
			c-3.063,0-5.888,1.638-7.407,4.301l-102.4,179.2c-2.338,4.087-0.913,9.301,3.174,11.639c4.096,2.338,9.301,0.922,11.639-3.174
			l25.609-44.817c4.386,3.874,9.498,7.808,15.488,11.529l-13.764,34.415c-1.749,4.378,0.375,9.344,4.753,11.093
			c1.05,0.418,2.116,0.614,3.174,0.614c3.388,0,6.588-2.031,7.927-5.367l13.099-32.759c5.811,2.577,12.211,4.864,19.208,6.784
			l-5.931,29.662c-0.922,4.625,2.074,9.114,6.69,10.044c0.563,0.12,1.126,0.171,1.681,0.171c3.985,0,7.552-2.807,8.354-6.861
			l5.888-29.431c6.221,0.981,12.843,1.655,19.883,1.954v25.805c0,4.71,3.823,8.533,8.533,8.533c4.71,0,8.533-3.823,8.533-8.533
			v-25.924c6.844-0.29,13.517-0.828,19.883-1.809l5.879,29.406c0.811,4.053,4.378,6.861,8.363,6.861
			c0.555,0,1.118-0.051,1.681-0.171c4.625-0.922,7.62-5.419,6.69-10.044l-5.914-29.568c6.733-1.818,13.099-4.156,19.191-6.861
			l13.099,32.734c1.34,3.345,4.548,5.376,7.936,5.376c1.058,0,2.125-0.196,3.166-0.614c4.378-1.758,6.502-6.716,4.753-11.093
			l-13.73-34.321c5.487-3.439,10.556-7.441,15.386-11.742l25.677,44.937c1.57,2.756,4.454,4.301,7.415,4.301
			c1.434,0,2.893-0.358,4.224-1.126C392.328,491.469,393.744,486.255,391.406,482.167z M182.996,441.114
			c-4.753-3.157-9.19-6.665-13.261-10.556l17.468-30.575c2.671,2.406,5.905,4.582,9.643,6.511L182.996,441.114z M222.028,416.461
			l-7.757,38.801c-5.666-1.613-11.076-3.558-16.196-5.854l14.652-36.634c0.026-0.051,0.009-0.111,0.026-0.162
			c3.174,0.896,6.468,1.698,9.89,2.372C222.438,415.479,222.139,415.915,222.028,416.461z M247.466,418.133v42.342
			c-5.666-0.273-11.204-0.742-16.521-1.562l7.825-39.108c0.171-0.853,0.077-1.69,0-2.509c2.893,0.273,5.811,0.486,8.747,0.623
			C247.508,417.997,247.466,418.057,247.466,418.133z M264.532,460.484v-42.351c0-0.077-0.043-0.137-0.043-0.213
			c2.935-0.136,5.854-0.35,8.747-0.623c-0.085,0.828-0.179,1.655,0,2.509l7.834,39.168
			C275.771,459.768,270.224,460.228,264.532,460.484z M297.753,455.381l-7.782-38.921c-0.111-0.546-0.418-0.981-0.614-1.476
			c3.422-0.683,6.724-1.476,9.899-2.372c0.017,0.051,0.009,0.111,0.026,0.162l14.703,36.753
			C308.846,451.831,303.436,453.786,297.753,455.381z M329.027,441.182l-13.867-34.679c3.738-1.937,6.972-4.113,9.643-6.511
			l17.468,30.575C338.167,434.492,333.738,438.016,329.027,441.182z"/>
	</g>
</svg>
