<svg width="288.33271484375px" height="128px" xmlns="http://www.w3.org/2000/svg" viewBox="105.833642578125 11 288.33271484375 128" style="background: none;" preserveAspectRatio="xMidYMid"><defs><linearGradient id="editing-gradient-gradient" x1="0" x2="1" y1="0.5" y2="0.5" gradientUnits="objectBoundingBox"><stop offset="0" stop-color="#f0f"></stop><stop offset="1" stop-color="#00ffff"></stop></linearGradient></defs><g><g transform="translate(152.43915313482285, 105.02000045776367)"><path d="M13.88-25.84L13.88-25.84L13.88-25.84Q15.06-27.66 16.41-29.13L16.41-29.13L16.41-29.13Q16.97-29.75 17.63-30.34L17.63-30.34L17.63-30.34Q18.28-30.94 18.98-31.41L18.98-31.41L18.98-31.41Q19.69-31.88 20.44-32.16L20.44-32.16L20.44-32.16Q21.19-32.44 21.94-32.44L21.94-32.44L21.94-32.44Q23.53-32.44 24.44-31.48L24.44-31.48L24.44-31.48Q25.34-30.53 25.34-28.81L25.34-28.81L25.34-28.81Q25.34-27.75 25.17-26.77L25.17-26.77L25.17-26.77Q25-25.78 24.50-24.38L24.50-24.38L23.63-24.38L23.63-24.38Q23.44-25.34 22.75-25.98L22.75-25.98L22.75-25.98Q22.06-26.63 20.75-26.63L20.75-26.63L20.75-26.63Q19.78-26.63 18.84-26.27L18.84-26.27L18.84-26.27Q17.91-25.91 17.02-25.38L17.02-25.38L17.02-25.38Q16.13-24.84 15.33-24.22L15.33-24.22L15.33-24.22Q14.53-23.59 13.88-23.03L13.88-23.03L13.88-2.75L13.88-2.75Q13.88-2.34 13.75-1.78L13.75-1.78L13.75-1.78Q13.63-1.22 13.14-0.72L13.14-0.72L13.14-0.72Q12.66-0.22 11.70 0.14L11.70 0.14L11.70 0.14Q10.75 0.50 9.09 0.50L9.09 0.50L9.09 0.50Q7.44 0.50 6.48 0.11L6.48 0.11L6.48 0.11Q5.53-0.28 5.03-0.81L5.03-0.81L5.03-0.81Q4.53-1.34 4.41-1.91L4.41-1.91L4.41-1.91Q4.28-2.47 4.28-2.81L4.28-2.81L4.28-26.94L4.28-26.94Q4.28-27.84 3.86-28.52L3.86-28.52L3.86-28.52Q3.44-29.19 2.44-29.19L2.44-29.19L2.44-29.19Q1.91-29.19 1.53-29L1.53-29L1.53-29Q1.16-28.81 0.72-28.47L0.72-28.47L0.06-29.25L0.06-29.25Q0.78-29.84 1.67-30.42L1.67-30.42L1.67-30.42Q2.56-31 3.59-31.44L3.59-31.44L3.59-31.44Q4.63-31.88 5.81-32.16L5.81-32.16L5.81-32.16Q7-32.44 8.31-32.44L8.31-32.44L8.31-32.44Q9.66-32.44 10.61-32.08L10.61-32.08L10.61-32.08Q11.56-31.72 12.17-31.14L12.17-31.14L12.17-31.14Q12.78-30.56 13.13-29.84L13.13-29.84L13.13-29.84Q13.47-29.13 13.64-28.39L13.64-28.39L13.64-28.39Q13.81-27.66 13.84-26.98L13.84-26.98L13.84-26.98Q13.88-26.31 13.88-25.84ZM42.75-8.56L42.75-16.19L42.75-16.19Q42.75-16.97 42.25-17.38L42.25-17.38L42.25-17.38Q41.75-17.78 40.97-17.78L40.97-17.78L40.97-17.78Q39.88-17.78 38.89-17.28L38.89-17.28L38.89-17.28Q37.91-16.78 37.16-15.81L37.16-15.81L37.16-15.81Q36.41-14.84 35.97-13.42L35.97-13.42L35.97-13.42Q35.53-12 35.53-10.13L35.53-10.13L35.53-10.13Q35.53-8.31 35.80-7.13L35.80-7.13L35.80-7.13Q36.06-5.94 36.52-5.23L36.52-5.23L36.52-5.23Q36.97-4.53 37.56-4.25L37.56-4.25L37.56-4.25Q38.16-3.97 38.81-3.97L38.81-3.97L38.81-3.97Q39.63-3.97 40.34-4.39L40.34-4.39L40.34-4.39Q41.06-4.81 41.59-5.47L41.59-5.47L41.59-5.47Q42.13-6.13 42.44-6.94L42.44-6.94L42.44-6.94Q42.75-7.75 42.75-8.56L42.75-8.56ZM37.78-29.88L37.78-29.88L37.78-29.88Q36.72-29.88 35.81-29.63L35.81-29.63L35.81-29.63Q34.91-29.38 34.25-29L34.25-29L34.25-29Q33.59-28.63 33.22-28.17L33.22-28.17L33.22-28.17Q32.84-27.72 32.84-27.31L32.84-27.31L32.84-27.31Q32.84-26.84 33.33-26.64L33.33-26.64L33.33-26.64Q33.81-26.44 34.41-26.17L34.41-26.17L34.41-26.17Q35-25.91 35.48-25.42L35.48-25.42L35.48-25.42Q35.97-24.94 35.97-23.94L35.97-23.94L35.97-23.94Q35.97-23.28 35.70-22.73L35.70-22.73L35.70-22.73Q35.44-22.19 34.98-21.77L34.98-21.77L34.98-21.77Q34.53-21.34 33.92-21.11L33.92-21.11L33.92-21.11Q33.31-20.88 32.66-20.88L32.66-20.88L32.66-20.88Q30.91-20.88 29.83-22.06L29.83-22.06L29.83-22.06Q28.75-23.25 28.75-25.22L28.75-25.22L28.75-25.22Q28.75-27.13 29.75-28.48L29.75-28.48L29.75-28.48Q30.75-29.84 32.36-30.72L32.36-30.72L32.36-30.72Q33.97-31.59 36-32.02L36-32.02L36-32.02Q38.03-32.44 40.06-32.44L40.06-32.44L40.06-32.44Q42.50-32.44 44.72-31.91L44.72-31.91L44.72-31.91Q46.94-31.38 48.64-30.22L48.64-30.22L48.64-30.22Q50.34-29.06 51.36-27.28L51.36-27.28L51.36-27.28Q52.38-25.50 52.38-22.97L52.38-22.97L52.38-5.31L52.38-5.31Q52.38-5.03 52.41-4.69L52.41-4.69L52.41-4.69Q52.44-4.34 52.56-4.06L52.56-4.06L52.56-4.06Q52.69-3.78 52.94-3.59L52.94-3.59L52.94-3.59Q53.19-3.41 53.66-3.41L53.66-3.41L53.66-3.41Q54.22-3.41 54.70-3.83L54.70-3.83L54.70-3.83Q55.19-4.25 55.56-4.69L55.56-4.69L56.34-4.03L56.34-4.03Q55.88-3.38 55.22-2.59L55.22-2.59L55.22-2.59Q54.56-1.81 53.63-1.13L53.63-1.13L53.63-1.13Q52.69-0.44 51.44 0.03L51.44 0.03L51.44 0.03Q50.19 0.50 48.59 0.50L48.59 0.50L48.59 0.50Q46.63 0.50 45.09-0.67L45.09-0.67L45.09-0.67Q43.56-1.84 43.09-4.28L43.09-4.28L43.09-4.28Q42.09-2.94 41.02-2.03L41.02-2.03L41.02-2.03Q39.94-1.13 38.81-0.56L38.81-0.56L38.81-0.56Q37.69 0 36.55 0.25L36.55 0.25L36.55 0.25Q35.41 0.50 34.25 0.50L34.25 0.50L34.25 0.50Q32.75 0.50 31.34 0.03L31.34 0.03L31.34 0.03Q29.94-0.44 28.83-1.45L28.83-1.45L28.83-1.45Q27.72-2.47 27.05-4.09L27.05-4.09L27.05-4.09Q26.38-5.72 26.38-8.06L26.38-8.06L26.38-8.06Q26.38-10.91 27.50-12.72L27.50-12.72L27.50-12.72Q28.63-14.53 30.45-15.77L30.45-15.77L30.45-15.77Q32.28-17 34.61-17.88L34.61-17.88L34.61-17.88Q36.94-18.75 39.38-19.72L39.38-19.72L39.38-19.72Q41.19-20.44 42.02-21.86L42.02-21.86L42.02-21.86Q42.84-23.28 42.84-24.78L42.84-24.78L42.84-24.78Q42.84-27.09 41.48-28.48L41.48-28.48L41.48-28.48Q40.13-29.88 37.78-29.88ZM70.22-43.47L70.22-23.94L70.22-23.94Q71.31-25.41 72.56-26.92L72.56-26.92L72.56-26.92Q73.81-28.44 75.25-29.66L75.25-29.66L75.25-29.66Q76.69-30.88 78.38-31.66L78.38-31.66L78.38-31.66Q80.06-32.44 82.06-32.44L82.06-32.44L82.06-32.44Q83.84-32.44 85.03-31.73L85.03-31.73L85.03-31.73Q86.22-31.03 86.95-30.05L86.95-30.05L86.95-30.05Q87.69-29.06 87.98-28L87.98-28L87.98-28Q88.28-26.94 88.28-26.19L88.28-26.19L88.28-26.19Q88.28-24.81 87.92-23.33L87.92-23.33L87.92-23.33Q87.56-21.84 86.70-20.39L86.70-20.39L86.70-20.39Q85.84-18.94 84.41-17.58L84.41-17.58L84.41-17.58Q82.97-16.22 80.78-15.09L80.78-15.09L80.78-15.09Q83.72-8.88 86.50-4.39L86.50-4.39L86.50-4.39Q89.28 0.09 91.86 2.98L91.86 2.98L91.86 2.98Q94.44 5.88 96.81 7.25L96.81 7.25L96.81 7.25Q99.19 8.63 101.34 8.63L101.34 8.63L101.34 8.63Q101.72 8.63 102.09 8.53L102.09 8.53L102.09 8.53Q102.47 8.44 102.78 8.31L102.78 8.31L102.78 8.31Q103.13 8.19 103.50 8L103.50 8L104.09 9.09L104.09 9.09Q103.25 9.56 102.38 9.98L102.38 9.98L102.38 9.98Q101.50 10.41 100.38 10.72L100.38 10.72L100.38 10.72Q99.25 11.03 97.78 11.22L97.78 11.22L97.78 11.22Q96.31 11.41 94.28 11.41L94.28 11.41L94.28 11.41Q92.44 11.41 90.64 10.97L90.64 10.97L90.64 10.97Q88.84 10.53 87.03 9.41L87.03 9.41L87.03 9.41Q85.22 8.28 83.36 6.41L83.36 6.41L83.36 6.41Q81.50 4.53 79.55 1.66L79.55 1.66L79.55 1.66Q77.59-1.22 75.53-5.19L75.53-5.19L75.53-5.19Q73.47-9.16 71.25-14.47L71.25-14.47L71.25-14.47Q74.25-16.69 75.97-18.58L75.97-18.58L75.97-18.58Q77.69-20.47 78.56-22L78.56-22L78.56-22Q79.44-23.53 79.66-24.72L79.66-24.72L79.66-24.72Q79.88-25.91 79.88-26.75L79.88-26.75L79.88-26.75Q79.88-26.88 79.84-27.17L79.84-27.17L79.84-27.17Q79.81-27.47 79.64-27.75L79.64-27.75L79.64-27.75Q79.47-28.03 79.14-28.25L79.14-28.25L79.14-28.25Q78.81-28.47 78.22-28.47L78.22-28.47L78.22-28.47Q77.06-28.47 75.88-27.48L75.88-27.48L75.88-27.48Q74.69-26.50 73.61-25.05L73.61-25.05L73.61-25.05Q72.53-23.59 71.66-21.92L71.66-21.92L71.66-21.92Q70.78-20.25 70.22-18.88L70.22-18.88L70.22-2.75L70.22-2.75Q70.22-2.34 70.08-1.78L70.08-1.78L70.08-1.78Q69.94-1.22 69.42-0.72L69.42-0.72L69.42-0.72Q68.91-0.22 67.92 0.14L67.92 0.14L67.92 0.14Q66.94 0.50 65.28 0.50L65.28 0.50L65.28 0.50Q63.63 0.50 62.69 0.11L62.69 0.11L62.69 0.11Q61.75-0.28 61.30-0.81L61.30-0.81L61.30-0.81Q60.84-1.34 60.73-1.91L60.73-1.91L60.73-1.91Q60.63-2.47 60.63-2.81L60.63-2.81L60.63-43.13L60.63-43.13Q60.63-44.03 60.20-44.70L60.20-44.70L60.20-44.70Q59.78-45.38 58.78-45.38L58.78-45.38L58.78-45.38Q58.25-45.38 57.86-45.20L57.86-45.20L57.86-45.20Q57.47-45.03 57.03-44.69L57.03-44.69L56.41-45.44L56.41-45.44Q57.13-46.03 58-46.61L58-46.61L58-46.61Q58.88-47.19 59.92-47.63L59.92-47.63L59.92-47.63Q60.97-48.06 62.16-48.34L62.16-48.34L62.16-48.34Q63.34-48.63 64.66-48.63L64.66-48.63L64.66-48.63Q66.69-48.63 67.81-48.08L67.81-48.08L67.81-48.08Q68.94-47.53 69.47-46.73L69.47-46.73L69.47-46.73Q70-45.94 70.11-45.05L70.11-45.05L70.11-45.05Q70.22-44.16 70.22-43.47L70.22-43.47ZM114.31-21.63L101.97-14.34L101.97-14.34Q101.97-13.34 102.27-12.17L102.27-12.17L102.27-12.17Q102.56-11 103.13-9.81L103.13-9.81L103.13-9.81Q103.69-8.63 104.52-7.55L104.52-7.55L104.52-7.55Q105.34-6.47 106.42-5.63L106.42-5.63L106.42-5.63Q107.50-4.78 108.81-4.28L108.81-4.28L108.81-4.28Q110.13-3.78 111.69-3.78L111.69-3.78L111.69-3.78Q112.78-3.78 113.72-4.03L113.72-4.03L113.72-4.03Q114.66-4.28 115.47-4.72L115.47-4.72L115.47-4.72Q116.28-5.16 117.03-5.73L117.03-5.73L117.03-5.73Q117.78-6.31 118.53-6.97L118.53-6.97L119.31-6.22L119.31-6.22Q118.59-5.25 117.47-4.09L117.47-4.09L117.47-4.09Q116.34-2.94 114.75-1.92L114.75-1.92L114.75-1.92Q113.16-0.91 111.03-0.23L111.03-0.23L111.03-0.23Q108.91 0.44 106.19 0.44L106.19 0.44L106.19 0.44Q103.47 0.44 100.89-0.55L100.89-0.55L100.89-0.55Q98.31-1.53 96.31-3.50L96.31-3.50L96.31-3.50Q94.31-5.47 93.11-8.41L93.11-8.41L93.11-8.41Q91.91-11.34 91.91-15.28L91.91-15.28L91.91-15.28Q91.91-18.13 92.63-20.50L92.63-20.50L92.63-20.50Q93.34-22.88 94.58-24.78L94.58-24.78L94.58-24.78Q95.81-26.69 97.45-28.13L97.45-28.13L97.45-28.13Q99.09-29.56 100.91-30.52L100.91-30.52L100.91-30.52Q102.72-31.47 104.61-31.95L104.61-31.95L104.61-31.95Q106.50-32.44 108.25-32.44L108.25-32.44L108.25-32.44Q110.56-32.44 112.28-31.94L112.28-31.94L112.28-31.94Q114-31.44 115.14-30.59L115.14-30.59L115.14-30.59Q116.28-29.75 116.84-28.64L116.84-28.64L116.84-28.64Q117.41-27.53 117.41-26.31L117.41-26.31L117.41-26.31Q117.41-24.84 116.56-23.67L116.56-23.67L116.56-23.67Q115.72-22.50 114.31-21.63L114.31-21.63ZM101.66-16.91L108.25-20.69L108.25-20.69Q108.66-20.94 108.92-21.17L108.92-21.17L108.92-21.17Q109.19-21.41 109.34-21.73L109.34-21.73L109.34-21.73Q109.50-22.06 109.58-22.55L109.58-22.55L109.58-22.55Q109.66-23.03 109.66-23.75L109.66-23.75L109.66-23.75Q109.66-24.53 109.48-25.48L109.48-25.48L109.48-25.48Q109.31-26.44 108.91-27.28L108.91-27.28L108.91-27.28Q108.50-28.13 107.88-28.69L107.88-28.69L107.88-28.69Q107.25-29.25 106.38-29.25L106.38-29.25L106.38-29.25Q105.25-29.25 104.45-28.58L104.45-28.58L104.45-28.58Q103.66-27.91 103.14-26.84L103.14-26.84L103.14-26.84Q102.63-25.78 102.33-24.42L102.33-24.42L102.33-24.42Q102.03-23.06 101.88-21.69L101.88-21.69L101.88-21.69Q101.72-20.31 101.69-19.05L101.69-19.05L101.69-19.05Q101.66-17.78 101.66-16.91L101.66-16.91ZM133.56-29.94L133.56-29.94L133.56-29.94Q132.84-29.94 132.20-29.75L132.20-29.75L132.20-29.75Q131.56-29.56 131.06-29.14L131.06-29.14L131.06-29.14Q130.56-28.72 130.28-28.08L130.28-28.08L130.28-28.08Q130-27.44 130-26.56L130-26.56L130-26.56Q130-25.34 130.89-24.14L130.89-24.14L130.89-24.14Q131.78-22.94 133.11-21.64L133.11-21.64L133.11-21.64Q134.44-20.34 135.98-18.95L135.98-18.95L135.98-18.95Q137.53-17.56 138.86-16.02L138.86-16.02L138.86-16.02Q140.19-14.47 141.08-12.72L141.08-12.72L141.08-12.72Q141.97-10.97 141.97-8.97L141.97-8.97L141.97-8.97Q141.97-6.72 141.20-4.97L141.20-4.97L141.20-4.97Q140.44-3.22 139.02-2L139.02-2L139.02-2Q137.59-0.78 135.58-0.14L135.58-0.14L135.58-0.14Q133.56 0.50 131.09 0.50L131.09 0.50L131.09 0.50Q128.94 0.50 127.19-0.11L127.19-0.11L127.19-0.11Q125.44-0.72 124.08-1.61L124.08-1.61L124.08-1.61Q122.72-2.50 121.75-3.50L121.75-3.50L121.75-3.50Q120.78-4.50 120.25-5.31L120.25-5.31L121.34-6.09L121.34-6.09Q121.75-5.63 122.38-5.08L122.38-5.08L122.38-5.08Q123-4.53 123.77-4.06L123.77-4.06L123.77-4.06Q124.53-3.59 125.41-3.30L125.41-3.30L125.41-3.30Q126.28-3 127.19-3L127.19-3L127.19-3Q129.44-3 130.88-4.08L130.88-4.08L130.88-4.08Q132.31-5.16 132.31-7.28L132.31-7.28L132.31-7.28Q132.31-8.47 131.53-9.73L131.53-9.73L131.53-9.73Q130.75-11 129.56-12.34L129.56-12.34L129.56-12.34Q128.38-13.69 127-15.13L127-15.13L127-15.13Q125.63-16.56 124.44-18.09L124.44-18.09L124.44-18.09Q123.25-19.63 122.47-21.25L122.47-21.25L122.47-21.25Q121.69-22.88 121.69-24.63L121.69-24.63L121.69-24.63Q121.69-26.59 122.48-28.06L122.48-28.06L122.48-28.06Q123.28-29.53 124.61-30.50L124.61-30.50L124.61-30.50Q125.94-31.47 127.64-31.95L127.64-31.95L127.64-31.95Q129.34-32.44 131.16-32.44L131.16-32.44L131.16-32.44Q133.25-32.44 134.97-32.06L134.97-32.06L134.97-32.06Q136.69-31.69 137.92-30.92L137.92-30.92L137.92-30.92Q139.16-30.16 139.83-29L139.83-29L139.83-29Q140.50-27.84 140.50-26.31L140.50-26.31L140.50-26.31Q140.50-25.13 139.72-24.25L139.72-24.25L139.72-24.25Q138.94-23.38 137.53-23.38L137.53-23.38L137.53-23.38Q136.19-23.38 135.48-23.95L135.48-23.95L135.48-23.95Q134.78-24.53 134.78-25.53L134.78-25.53L134.78-25.53Q134.78-26.19 135.11-26.56L135.11-26.56L135.11-26.56Q135.44-26.94 135.84-27.17L135.84-27.17L135.84-27.17Q136.25-27.41 136.58-27.58L136.58-27.58L136.58-27.58Q136.91-27.75 136.91-28.03L136.91-28.03L136.91-28.03Q136.91-28.91 135.97-29.42L135.97-29.42L135.97-29.42Q135.03-29.94 133.56-29.94ZM168.19-21.63L155.84-14.34L155.84-14.34Q155.84-13.34 156.14-12.17L156.14-12.17L156.14-12.17Q156.44-11 157-9.81L157-9.81L157-9.81Q157.56-8.63 158.39-7.55L158.39-7.55L158.39-7.55Q159.22-6.47 160.30-5.63L160.30-5.63L160.30-5.63Q161.38-4.78 162.69-4.28L162.69-4.28L162.69-4.28Q164-3.78 165.56-3.78L165.56-3.78L165.56-3.78Q166.66-3.78 167.59-4.03L167.59-4.03L167.59-4.03Q168.53-4.28 169.34-4.72L169.34-4.72L169.34-4.72Q170.16-5.16 170.91-5.73L170.91-5.73L170.91-5.73Q171.66-6.31 172.41-6.97L172.41-6.97L173.19-6.22L173.19-6.22Q172.47-5.25 171.34-4.09L171.34-4.09L171.34-4.09Q170.22-2.94 168.63-1.92L168.63-1.92L168.63-1.92Q167.03-0.91 164.91-0.23L164.91-0.23L164.91-0.23Q162.78 0.44 160.06 0.44L160.06 0.44L160.06 0.44Q157.34 0.44 154.77-0.55L154.77-0.55L154.77-0.55Q152.19-1.53 150.19-3.50L150.19-3.50L150.19-3.50Q148.19-5.47 146.98-8.41L146.98-8.41L146.98-8.41Q145.78-11.34 145.78-15.28L145.78-15.28L145.78-15.28Q145.78-18.13 146.50-20.50L146.50-20.50L146.50-20.50Q147.22-22.88 148.45-24.78L148.45-24.78L148.45-24.78Q149.69-26.69 151.33-28.13L151.33-28.13L151.33-28.13Q152.97-29.56 154.78-30.52L154.78-30.52L154.78-30.52Q156.59-31.47 158.48-31.95L158.48-31.95L158.48-31.95Q160.38-32.44 162.13-32.44L162.13-32.44L162.13-32.44Q164.44-32.44 166.16-31.94L166.16-31.94L166.16-31.94Q167.88-31.44 169.02-30.59L169.02-30.59L169.02-30.59Q170.16-29.75 170.72-28.64L170.72-28.64L170.72-28.64Q171.28-27.53 171.28-26.31L171.28-26.31L171.28-26.31Q171.28-24.84 170.44-23.67L170.44-23.67L170.44-23.67Q169.59-22.50 168.19-21.63L168.19-21.63ZM155.53-16.91L162.13-20.69L162.13-20.69Q162.53-20.94 162.80-21.17L162.80-21.17L162.80-21.17Q163.06-21.41 163.22-21.73L163.22-21.73L163.22-21.73Q163.38-22.06 163.45-22.55L163.45-22.55L163.45-22.55Q163.53-23.03 163.53-23.75L163.53-23.75L163.53-23.75Q163.53-24.53 163.36-25.48L163.36-25.48L163.36-25.48Q163.19-26.44 162.78-27.28L162.78-27.28L162.78-27.28Q162.38-28.13 161.75-28.69L161.75-28.69L161.75-28.69Q161.13-29.25 160.25-29.25L160.25-29.25L160.25-29.25Q159.13-29.25 158.33-28.58L158.33-28.58L158.33-28.58Q157.53-27.91 157.02-26.84L157.02-26.84L157.02-26.84Q156.50-25.78 156.20-24.42L156.20-24.42L156.20-24.42Q155.91-23.06 155.75-21.69L155.75-21.69L155.75-21.69Q155.59-20.31 155.56-19.05L155.56-19.05L155.56-19.05Q155.53-17.78 155.53-16.91L155.53-16.91ZM192.38-29.75L187.53-29.75L187.53-6.66L187.53-6.66Q187.53-5 188.16-4.36L188.16-4.36L188.16-4.36Q188.78-3.72 189.88-3.72L189.88-3.72L189.88-3.72Q190.72-3.72 191.38-4.19L191.38-4.19L191.38-4.19Q192.03-4.66 192.50-5.25L192.50-5.25L192.50-5.25Q193.06-5.91 193.47-6.78L193.47-6.78L194.44-6.34L194.44-6.34Q193.97-5.34 193.33-4.16L193.33-4.16L193.33-4.16Q192.69-2.97 191.63-1.95L191.63-1.95L191.63-1.95Q190.56-0.94 188.95-0.25L188.95-0.25L188.95-0.25Q187.34 0.44 184.91 0.44L184.91 0.44L184.91 0.44Q183.53 0.44 182.27 0.03L182.27 0.03L182.27 0.03Q181-0.38 180.02-1.25L180.02-1.25L180.02-1.25Q179.03-2.13 178.44-3.44L178.44-3.44L178.44-3.44Q177.84-4.75 177.84-6.59L177.84-6.59L177.84-29.75L174.34-29.75L174.34-32L174.34-32Q175.22-32 176.78-32.45L176.78-32.45L176.78-32.45Q178.34-32.91 179.98-33.97L179.98-33.97L179.98-33.97Q181.63-35.03 183.03-36.81L183.03-36.81L183.03-36.81Q184.44-38.59 185.03-41.22L185.03-41.22L187.53-41.22L187.53-32L192.63-32L192.63-32Q195.13-32 195.13-32.84L195.13-32.84L195.13-32.84Q195.13-33.16 194.81-33.27L194.81-33.27L194.81-33.27Q194.50-33.38 194.11-33.55L194.11-33.55L194.11-33.55Q193.72-33.72 193.41-34.03L193.41-34.03L193.41-34.03Q193.09-34.34 193.09-35.06L193.09-35.06L193.09-35.06Q193.09-35.94 193.64-36.44L193.64-36.44L193.64-36.44Q194.19-36.94 195.06-36.94L195.06-36.94L195.06-36.94Q195.63-36.94 196.05-36.70L196.05-36.70L196.05-36.70Q196.47-36.47 196.75-36.08L196.75-36.08L196.75-36.08Q197.03-35.69 197.17-35.19L197.17-35.19L197.17-35.19Q197.31-34.69 197.31-34.19L197.31-34.19L197.31-34.19Q197.31-32.16 196.14-30.95L196.14-30.95L196.14-30.95Q194.97-29.75 192.38-29.75L192.38-29.75Z" fill="url(#editing-gradient-gradient)"></path></g></g><style>text {
  font-size: 64px;
  font-family: Arial Black;
  dominant-baseline: central;
  text-anchor: middle;
}</style></svg>