<svg width="261.07900390625px" height="95.6px" xmlns="http://www.w3.org/2000/svg" viewBox="119.46049804687499 27.200000000000003 261.07900390625 95.6" style="background: rgba(0, 0, 0, 0);" preserveAspectRatio="xMidYMid"><defs><linearGradient id="editing-outline-gradient" x1="-0.41354545764260087" x2="1.4135454576426008" y1="0.09326335692419985" y2="0.9067366430758002"><stop offset="0" stop-color="#ee4208"></stop><stop offset="1" stop-color="#4139ff"></stop></linearGradient><filter id="editing-outline" x="-100%" y="-100%" width="300%" height="300%"><feMorphology in="SourceGraphic" operator="dilate" radius="4" result="outline"></feMorphology><feComposite operator="out" in="outline" in2="SourceAlpha"></feComposite></filter></defs><g filter="url(#editing-outline)"><g transform="translate(162.06210693717003, 92.76000022888184)"><path d="M15.84-13.49L15.84-13.49L15.84-13.49Q17.57-16.56 17.57-19.68L17.57-19.68L17.57-19.68Q17.57-21.74 16.08-21.74L16.08-21.74L16.08-21.74Q14.93-21.74 13.73-19.78L13.73-19.78L13.73-19.78Q12.48-17.81 12.10-15.26L12.10-15.26L9.60 0L-0.34 0.96L4.56-24.48L12.48-25.44L11.62-20.59L11.62-20.59Q13.97-25.44 19.25-25.44L19.25-25.44L19.25-25.44Q22.03-25.44 23.54-24L23.54-24L23.54-24Q25.06-22.56 25.06-19.61L25.06-19.61L25.06-19.61Q25.06-16.66 23.11-14.78L23.11-14.78L23.11-14.78Q21.17-12.91 17.86-12.91L17.86-12.91L17.86-12.91Q16.42-12.91 15.84-13.49ZM27.91-1.44L27.91-1.44L27.91-1.44Q26.78-2.69 26.28-4.66L26.28-4.66L26.28-4.66Q25.78-6.62 25.78-9.84L25.78-9.84L25.78-9.84Q25.78-13.06 26.88-15.98L26.88-15.98L26.88-15.98Q27.98-18.91 30-21.02L30-21.02L30-21.02Q34.13-25.44 40.94-25.44L40.94-25.44L40.94-25.44Q43.39-25.44 45.17-24.62L45.17-24.62L53.38-25.44L49.82-6.72L49.82-6.72Q49.68-6.14 49.68-5.09L49.68-5.09L49.68-5.09Q49.68-4.03 50.33-3.36L50.33-3.36L50.33-3.36Q50.98-2.69 51.94-2.59L51.94-2.59L51.94-2.59Q51.46-0.96 49.70 0L49.70 0L49.70 0Q47.95 0.96 45.98 0.96L45.98 0.96L45.98 0.96Q44.02 0.96 42.70 0.22L42.70 0.22L42.70 0.22Q41.38-0.53 40.99-1.78L40.99-1.78L40.99-1.78Q40.22-0.58 38.59 0.19L38.59 0.19L38.59 0.19Q36.96 0.96 34.78 0.96L34.78 0.96L34.78 0.96Q32.59 0.96 30.82 0.38L30.82 0.38L30.82 0.38Q29.04-0.19 27.91-1.44ZM38.04-20.93L38.04-20.93L38.04-20.93Q37.49-20.06 37.01-18.60L37.01-18.60L37.01-18.60Q36.53-17.14 35.74-13.22L35.74-13.22L35.74-13.22Q34.94-9.31 34.94-6.53L34.94-6.53L34.94-6.53Q34.94-3.74 35.38-2.93L35.38-2.93L35.38-2.93Q35.81-2.11 36.58-2.11L36.58-2.11L36.58-2.11Q38.11-2.11 39.24-3.58L39.24-3.58L39.24-3.58Q40.37-5.04 40.80-7.63L40.80-7.63L43.34-21.70L43.34-21.70Q42.34-22.56 41.16-22.56L41.16-22.56L41.16-22.56Q39.98-22.56 39.29-22.18L39.29-22.18L39.29-22.18Q38.59-21.79 38.04-20.93ZM68.35-22.75L68.35-22.75L68.35-22.75Q70.94-25.44 76.42-25.44L76.42-25.44L76.42-25.44Q79.44-25.44 81.10-23.83L81.10-23.83L81.10-23.83Q82.75-22.22 82.75-19.27L82.75-19.27L82.75-19.27Q82.75-16.32 81.10-14.23L81.10-14.23L81.10-14.23Q79.44-12.14 76.37-11.28L76.37-11.28L76.37-11.28Q76.61-10.32 76.94-9.31L76.94-9.31L77.62-7.39L77.62-7.39Q78.53-4.94 79.25-4.08L79.25-4.08L79.25-4.08Q79.97-3.22 80.93-2.93L80.93-2.93L80.93-2.93Q80.40-0.96 78.48 0.10L78.48 0.10L78.48 0.10Q76.94 0.96 74.83 0.96L74.83 0.96L74.83 0.96Q68.64 0.96 67.82-8.59L67.82-8.59L67.82-8.59Q67.68-9.94 67.68-11.28L67.68-11.28L67.68-11.28Q70.08-11.95 71.76-14.21L71.76-14.21L71.76-14.21Q73.44-16.46 73.44-19.10L73.44-19.10L73.44-19.10Q73.44-21.74 71.57-21.74L71.57-21.74L71.57-21.74Q70.22-21.74 69.17-20.26L69.17-20.26L69.17-20.26Q68.11-18.77 67.63-16.22L67.63-16.22L64.46 0L54.77 0.96L61.49-33.60L71.14-34.56L70.03-28.85L70.03-28.85Q69.31-24.82 68.35-22.75ZM104.40-8.11L104.40-8.11L104.40-8.11Q105.60-7.30 105.60-5.50L105.60-5.50L105.60-5.50Q105.60-3.70 104.69-2.54L104.69-2.54L104.69-2.54Q103.78-1.39 102.29-0.62L102.29-0.62L102.29-0.62Q99.22 0.96 95.90 0.96L95.90 0.96L95.90 0.96Q92.59 0.96 90.65 0.24L90.65 0.24L90.65 0.24Q88.70-0.48 87.41-1.82L87.41-1.82L87.41-1.82Q84.86-4.37 84.86-9.02L84.86-9.02L84.86-9.02Q84.86-16.27 88.80-20.69L88.80-20.69L88.80-20.69Q93.02-25.44 100.37-25.44L100.37-25.44L100.37-25.44Q104.93-25.44 107.18-23.52L107.18-23.52L107.18-23.52Q108.86-22.08 108.86-19.73L108.86-19.73L108.86-19.73Q108.86-11.28 94.27-11.28L94.27-11.28L94.27-11.28Q94.08-10.03 94.08-8.98L94.08-8.98L94.08-8.98Q94.08-6.77 95.06-5.93L95.06-5.93L95.06-5.93Q96.05-5.09 97.87-5.09L97.87-5.09L97.87-5.09Q99.70-5.09 101.64-5.93L101.64-5.93L101.64-5.93Q103.58-6.77 104.40-8.11ZM94.61-13.34L94.61-13.34L94.61-13.34Q98.02-13.34 99.98-15.46L99.98-15.46L99.98-15.46Q101.95-17.47 101.95-20.69L101.95-20.69L101.95-20.69Q101.95-21.79 101.54-22.39L101.54-22.39L101.54-22.39Q101.14-22.99 100.32-22.99L100.32-22.99L100.32-22.99Q99.50-22.99 98.81-22.68L98.81-22.68L98.81-22.68Q98.11-22.37 97.39-21.31L97.39-21.31L97.39-21.31Q95.62-18.91 94.61-13.34ZM124.85-16.85L124.85-16.85L124.85-16.85Q125.52-18.62 125.52-20.16L125.52-20.16L125.52-20.16Q125.52-22.99 123.22-22.99L123.22-22.99L123.22-22.99Q122.02-22.99 121.03-21.91L121.03-21.91L121.03-21.91Q120.05-20.83 120.05-19.49L120.05-19.49L120.05-19.49Q120.05-18.53 120.82-17.76L120.82-17.76L120.82-17.76Q121.92-16.70 124.75-14.98L124.75-14.98L124.75-14.98Q127.58-13.25 128.66-11.83L128.66-11.83L128.66-11.83Q129.74-10.42 129.74-8.47L129.74-8.47L129.74-8.47Q129.74-6.53 128.81-4.75L128.81-4.75L128.81-4.75Q127.87-2.98 126.19-1.73L126.19-1.73L126.19-1.73Q122.59 0.96 116.83 0.96L116.83 0.96L116.83 0.96Q113.71 0.96 111.31-0.67L111.31-0.67L111.31-0.67Q108.91-2.26 108.91-4.13L108.91-4.13L108.91-4.13Q108.91-6 110.28-7.10L110.28-7.10L110.28-7.10Q111.65-8.21 113.66-8.21L113.66-8.21L113.66-8.21Q115.68-8.21 116.93-7.44L116.93-7.44L116.93-7.44Q116.30-5.86 116.30-4.80L116.30-4.80L116.30-4.80Q116.30-1.63 118.99-1.63L118.99-1.63L118.99-1.63Q120.14-1.63 120.91-2.35L120.91-2.35L120.91-2.35Q121.68-3.07 121.68-4.32L121.68-4.32L121.68-4.32Q121.68-6.77 117.55-9.36L117.55-9.36L117.55-9.36Q114.19-11.57 113.42-12.43L113.42-12.43L113.42-12.43Q112.13-13.97 112.13-15.89L112.13-15.89L112.13-15.89Q112.13-17.81 113.04-19.63L113.04-19.63L113.04-19.63Q113.95-21.46 115.63-22.75L115.63-22.75L115.63-22.75Q119.14-25.44 125.23-25.44L125.23-25.44L125.23-25.44Q128.35-25.44 130.20-24.19L130.20-24.19L130.20-24.19Q132.05-22.94 132.05-20.83L132.05-20.83L132.05-20.83Q132.05-18.72 130.78-17.52L130.78-17.52L130.78-17.52Q129.50-16.32 127.20-16.32L127.20-16.32L127.20-16.32Q125.62-16.32 124.85-16.85ZM153.26-8.11L153.26-8.11L153.26-8.11Q154.46-7.30 154.46-5.50L154.46-5.50L154.46-5.50Q154.46-3.70 153.55-2.54L153.55-2.54L153.55-2.54Q152.64-1.39 151.15-0.62L151.15-0.62L151.15-0.62Q148.08 0.96 144.77 0.96L144.77 0.96L144.77 0.96Q141.46 0.96 139.51 0.24L139.51 0.24L139.51 0.24Q137.57-0.48 136.27-1.82L136.27-1.82L136.27-1.82Q133.73-4.37 133.73-9.02L133.73-9.02L133.73-9.02Q133.73-16.27 137.66-20.69L137.66-20.69L137.66-20.69Q141.89-25.44 149.23-25.44L149.23-25.44L149.23-25.44Q153.79-25.44 156.05-23.52L156.05-23.52L156.05-23.52Q157.73-22.08 157.73-19.73L157.73-19.73L157.73-19.73Q157.73-11.28 143.14-11.28L143.14-11.28L143.14-11.28Q142.94-10.03 142.94-8.98L142.94-8.98L142.94-8.98Q142.94-6.77 143.93-5.93L143.93-5.93L143.93-5.93Q144.91-5.09 146.74-5.09L146.74-5.09L146.74-5.09Q148.56-5.09 150.50-5.93L150.50-5.93L150.50-5.93Q152.45-6.77 153.26-8.11ZM143.47-13.34L143.47-13.34L143.47-13.34Q146.88-13.34 148.85-15.46L148.85-15.46L148.85-15.46Q150.82-17.47 150.82-20.69L150.82-20.69L150.82-20.69Q150.82-21.79 150.41-22.39L150.41-22.39L150.41-22.39Q150-22.99 149.18-22.99L149.18-22.99L149.18-22.99Q148.37-22.99 147.67-22.68L147.67-22.68L147.67-22.68Q146.98-22.37 146.26-21.31L146.26-21.31L146.26-21.31Q144.48-18.91 143.47-13.34ZM160.13-4.80L160.13-4.80L160.13-4.80Q160.13-6.10 160.80-9.36L160.80-9.36L163.34-22.32L160.51-22.32L160.70-23.76L160.70-23.76Q166.46-25.49 172.03-29.71L172.03-29.71L174.34-29.71L173.18-24.48L176.93-24.48L176.50-22.32L172.80-22.32L170.35-9.36L170.35-9.36Q169.73-6.38 169.73-5.38L169.73-5.38L169.73-5.38Q169.73-3.07 171.74-2.59L171.74-2.59L171.74-2.59Q171.26-0.96 169.54 0L169.54 0L169.54 0Q167.81 0.96 165.36 0.96L165.36 0.96L165.36 0.96Q162.91 0.96 161.52-0.58L161.52-0.58L161.52-0.58Q160.13-2.11 160.13-4.80Z" fill="url(#editing-outline-gradient)"></path></g></g><style>text {
  font-size: 64px;
  font-family: Arial Black;
  dominant-baseline: central;
  text-anchor: middle;
}</style></svg>